<svg id="Layer_1" data-name="Layer 1" xmlns="http://www.w3.org/2000/svg" viewBox="0 0 29.52 21.82"><defs><style>.cls-1{fill:#8c917c;}</style></defs><title>favicon</title><circle class="cls-1" cx="20.25" cy="18.36" r="0.86"/><circle class="cls-1" cx="16.39" cy="20.96" r="0.86"/><path class="cls-1" d="M57.53,16.6a11.33,11.33,0,0,1-13.06.76,2.13,2.13,0,0,0-.7-.28,1.1,1.1,0,0,0-.77.18A2.75,2.75,0,0,0,42,19c-.17.59-1.59,1-1.92.44a1.07,1.07,0,0,1,.38-1.53,7.23,7.23,0,0,0,2.18-2.07c4.18-6.39,12-10.5,17.29-12,.17,0,.27-.1.26-.12s-.11,0-.32,0a30.4,30.4,0,0,0-17.21,11c0,.07-.12.19-.21.18a.33.33,0,0,1-.2-.2c-1.17-3.45-.31-8.1,1.22-10C49.1-2.6,60.34-2.18,69.21,2c.06,0,.16.1.16.18s-.09.17-.14.21C60.61,8.59,62.36,12.89,57.53,16.6Z" transform="translate(-39.85 1.01)"/></svg>