<svg xmlns="http://www.w3.org/2000/svg" width="59.506" height="100.668" viewBox="0 0 59.506 100.668">
  <path id="패스_14404" data-name="패스 14404" d="M22.032,0a8.975,8.975,0,0,0-8.948,8.948V91.72a8.975,8.975,0,0,0,8.948,8.948H63.641A8.975,8.975,0,0,0,72.59,91.72V8.948A8.975,8.975,0,0,0,63.641,0H22.032ZM37.85,8.618h9.977c.656,0,1.188.752,1.188,1.678s-.532,1.678-1.188,1.678H37.85c-.656,0-1.188-.752-1.188-1.678S37.194,8.618,37.85,8.618ZM18,20.582H67.676V80.088H18V20.582ZM42.838,84.838h0a5.54,5.54,0,0,1,5.54,5.54h0a5.54,5.54,0,0,1-5.54,5.54h0a5.54,5.54,0,0,1-5.54-5.54h0a5.54,5.54,0,0,1,5.54-5.54Z" transform="translate(-13.084)" fill="#8b8c8b"/>
</svg>
