<svg xmlns="http://www.w3.org/2000/svg" width="88.261" height="69.348" viewBox="0 0 88.261 69.348">
  <path id="패스_14411" data-name="패스 14411" d="M85.054,15.625H15.707A9.459,9.459,0,0,0,6.25,25.082V75.516a9.459,9.459,0,0,0,9.457,9.456H85.054a9.459,9.459,0,0,0,9.457-9.456V25.082A9.459,9.459,0,0,0,85.054,15.625Zm-1.284,6.3L50.38,50.551,16.99,21.929Zm1.284,56.739H15.707a3.151,3.151,0,0,1-3.152-3.152V26.429L46.436,55.468v0a6.029,6.029,0,0,0,7.88,0l33.89-29.043V75.516a3.148,3.148,0,0,1-3.152,3.152Z" transform="translate(-6.25 -15.625)" fill="#8b8c8b"/>
</svg>
