<svg id="그룹_92" data-name="그룹 92" xmlns="http://www.w3.org/2000/svg" width="100.757" height="81.097" viewBox="0 0 100.757 81.097">
  <path id="패스_14407" data-name="패스 14407" d="M59.385,969.362a4.313,4.313,0,0,1,2.265.768l46.692,36.862c1.2,1.191,2.043,3.755.806,5.337a3.817,3.817,0,0,1-5.337.461L59.385,977.733,14.959,1012.8a3.775,3.775,0,0,1-5.337-.461,4.184,4.184,0,0,1,.806-5.337l17.01-13.44v-20.5a3.686,3.686,0,0,1,3.686-3.686h9.83a3.687,3.687,0,0,1,3.686,3.686V980l12.479-9.868a3.755,3.755,0,0,1,2.265-.768Zm-22.117,7.372H34.81v11.02l2.457-1.958Zm51.607,28.607,7.372,5.837v35.6a3.687,3.687,0,0,1-3.686,3.686H69.215a3.686,3.686,0,0,1-3.686-3.686v-14.745a6.144,6.144,0,1,0-12.287,0v14.745a3.687,3.687,0,0,1-3.686,3.686H26.209a3.686,3.686,0,0,1-3.686-3.686v-35.6l7.372-5.837v37.746H45.869v-11.059a13.516,13.516,0,1,1,27.032,0v11.059H88.875Z" transform="translate(-9 -969.362)" fill="#8b8c8b"/>
</svg>
